<?xml version="1.0" ?><svg viewBox="0 0 64 64" xmlns="http://www.w3.org/2000/svg"><defs><style>.cls-1,.cls-2{fill:none;stroke:#000;stroke-linejoin:round;stroke-width:2px;}.cls-1{stroke-linecap:round;}</style></defs><g id="portfolio"><circle class="cls-1" cx="47" cy="8" r="2"/><circle cx="25.0992" cy="8.5232" r="1.0691"/><line class="cls-1" x1="8.5509" x2="11.5509" y1="5.0547" y2="8.0547"/><line class="cls-1" x1="11.5509" x2="8.5509" y1="5.0547" y2="8.0547"/><line class="cls-1" x1="23" x2="43" y1="61" y2="61"/><line class="cls-2" x1="26" x2="26" y1="61" y2="53"/><line class="cls-2" x1="40" x2="40" y1="53" y2="61"/><rect class="cls-1" height="12" width="16" x="10" y="22"/><polyline class="cls-2" points="10 46 10 38 26 38 26 46"/><circle cx="9.0992" cy="18.5232" r="1.0691"/><circle cx="12.0992" cy="18.5232" r="1.0691"/><circle cx="15.0992" cy="18.5232" r="1.0691"/><line class="cls-1" x1="31" x2="36" y1="23" y2="23"/><line class="cls-1" x1="31" x2="40" y1="26" y2="26"/><line class="cls-1" x1="31" x2="40" y1="39" y2="39"/><line class="cls-1" x1="31" x2="35" y1="42" y2="42"/><rect class="cls-1" height="4" rx="2" width="14" x="31" y="30"/><line class="cls-1" x1="49" x2="49" y1="22" y2="30"/><rect class="cls-1" height="38" rx="0.5824" width="56" x="5" y="15"/><line class="cls-2" x1="5" x2="61" y1="46" y2="46"/><line class="cls-2" x1="52" x2="52" y1="15" y2="46"/></g></svg>